<svg xmlns="http://www.w3.org/2000/svg" viewBox="0 0 512 512">
  <rect width="512" height="512" rx="110" fill="#000"/>
  <path d="M302 120c15 48 48 75 92 80v62c-33 0-64-10-92-29v96c0 73-47 119-116 119-60 0-108-43-108-101 0-65 51-103 116-99v65c-28-4-50 10-50 34 0 22 18 37 42 37 27 0 46-18 46-56V120z" fill="#25f4ee"/>
  <path d="M318 120c15 43 47 68 92 73v62c-33 0-65-10-92-29v96c0 73-48 119-116 119-33 0-62-13-82-34 19 12 43 19 70 19 68 0 116-46 116-119v-96c27 19 59 29 92 29v-34c-39-7-69-32-84-86z" fill="#fe2c55"/>
  <path d="M286 120c15 48 48 75 92 80v42c-33 0-64-10-92-29v96c0 73-47 119-116 119-60 0-108-43-108-101 0-65 51-103 116-99v43c-28-4-50 10-50 34 0 22 18 37 42 37 27 0 46-18 46-56V120z" fill="#fff"/>
</svg>
